<svg width="80" height="80" viewBox="0 0 80 80" fill="none" xmlns="http://www.w3.org/2000/svg">
<path d="M56.8191 52.0928C53.8817 54.0833 50.2377 54.6433 47.0109 52.8575C46.0211 52.3097 44.3063 52.526 43.1466 52.5261L17.4909 52.5277C12.4418 52.5286 11.8113 52.4317 11.8102 47.5838L11.8116 19.8552C11.9153 18.4133 12.5869 17.4506 14.1316 17.228C14.6889 17.1991 15.5502 17.2269 16.1277 17.2269L24.7259 17.2259C25.592 17.2261 26.4692 17.215 27.3333 17.2427C27.9659 17.2288 31.8777 21.4034 32.4416 21.9883L50.2578 21.9863C54.3899 21.9836 54.7639 22.6267 54.7641 26.687L54.7622 30.7083C55.362 30.7059 57.7817 30.3847 57.6939 31.3534C57.5144 33.3353 57.1934 35.7922 56.8191 37.7763L57.2753 38.1806C61.0041 41.5491 61.3391 47.2655 57.9578 50.9994C58.4002 51.5013 59.2331 52.2738 59.7284 52.7572C60.0325 52.4133 60.6425 51.6347 61.1405 52.0944C63.4719 54.2474 65.5738 56.6575 67.8884 58.8358C69.1225 59.8278 67.2091 60.9986 66.4038 61.7894C65.3541 62.9405 65.3949 63.0644 64.3275 61.992C62.3238 59.9789 60.4286 57.8649 58.3509 55.9252C57.4467 55.0828 57.8322 54.6272 58.627 53.8994C58.0363 53.29 57.3856 52.6939 56.8191 52.0928ZM18.9744 18.7355L15.848 18.7328C13.2427 18.7314 13.3073 18.7205 13.3238 21.3083L13.327 24.1958C14.5186 23.7442 14.8006 23.8369 16.0595 23.8366L26.6217 23.8392C27.8364 23.8416 28.6866 25.2303 29.5516 26.1016C31.0466 27.6077 32.4528 29.2341 33.9764 30.7083H47.3633H53.2558L53.2578 26.7299C53.2577 23.4466 53.3258 23.4866 50.3352 23.488L33.5699 23.4919C33.0644 23.492 32.4136 23.5166 31.9258 23.4908C30.6127 22.6202 28.3569 19.9174 27.0578 18.7355H18.9744ZM14.7506 25.3581C12.9524 25.5889 13.3248 27.2259 13.3249 28.57L13.3248 47.3372C13.3237 48.4875 12.8877 51.0008 14.6387 51.0027L44.4864 50.9994C42.0449 48.0533 41.2517 44.2342 43.1275 40.7442C45.5022 36.2067 50.8655 34.6424 55.3941 36.8617C55.6553 35.4022 55.7745 33.5853 56.067 32.2516L35.9705 32.2527C34.8702 32.2525 33.5897 32.5352 32.8249 31.7533C30.7505 29.6328 28.7949 27.4281 26.6681 25.3581H14.7506ZM50.5303 37.3931C46.4003 37.765 43.3483 41.4061 43.7033 45.5375C44.0583 49.6691 47.6867 52.736 51.8197 52.3978C55.9766 52.0577 59.0652 48.4036 58.7081 44.2481C58.3509 40.0927 54.6842 37.0191 50.5303 37.3931ZM60.7728 53.8994C60.4241 54.2828 60.1003 54.602 59.7284 54.9638C59.9814 55.3013 60.3531 55.6619 60.6577 55.9577C61.8708 57.1359 64.0222 59.7406 65.2578 60.6174C65.6416 60.315 66.0253 59.932 66.4038 59.6066C64.4916 57.9631 62.6847 55.6725 60.7728 53.8994Z" fill="#9CA3AF"/>
<path d="M22.1933 21.9888L17.7919 21.9908C17.4964 21.9921 16.4887 22.1005 16.3467 21.9841C15.6861 21.4427 15.8722 20.678 16.6853 20.5427C18.2639 20.4341 20.4437 20.5093 22.0201 20.5644C23.0311 20.5997 23.1314 21.8841 22.1933 21.9888Z" fill="#9CA3AF"/>
<path d="M41.4941 40.1952L37.2492 40.1981C36.5727 40.1987 35.8366 40.2204 35.1808 40.1785C34.312 40.1232 34.1042 38.7007 35.4391 38.6568L39.5958 38.6559C40.2417 38.6546 41.0719 38.6256 41.6948 38.6765C42.5492 38.7462 42.6833 40.1632 41.4941 40.1952Z" fill="#9CA3AF"/>
<path d="M45.9872 45.596C43.8548 46.1807 44.9934 39.2973 50.8052 38.7663C51.845 38.7041 52.1409 39.449 51.4902 40.1951C51.2956 40.254 50.8995 40.2962 50.6948 40.3131C46.3048 40.6765 46.9306 45.0413 45.9872 45.596Z" fill="#9CA3AF"/>
<path d="M40.5725 43.1273C39.8556 43.1323 35.162 43.2166 34.84 43.0357C34.2012 42.6768 34.4714 41.7734 35.115 41.6166C36.8334 41.5643 38.6005 41.6451 40.3216 41.6216C41.3839 41.6071 41.4545 42.9252 40.5725 43.1273Z" fill="#9CA3AF"/>
<path d="M34.9611 46.2498C34.1159 45.6013 34.4514 44.7979 35.4391 44.7435L38.5675 44.7415C39.1369 44.7406 39.6583 44.7346 40.2622 44.7601C41.2822 44.8031 41.385 46.1162 40.1905 46.2498C38.5041 46.2876 36.6606 46.2531 34.9611 46.2498Z" fill="#9CA3AF"/>
</svg>
