<svg width="28" height="32" viewBox="0 0 28 32" fill="none" xmlns="http://www.w3.org/2000/svg">
<g clip-path="url(#clip0_556_208)">
<path d="M14.0003 0C12.894 0 12.0003 0.89375 12.0003 2V3.2C7.43777 4.125 4.00027 8.1625 4.00027 13V14.175C4.00027 17.1125 2.91902 19.95 0.969018 22.15L0.506518 22.6688C-0.0184815 23.2563 -0.143482 24.1 0.175268 24.8188C0.494018 25.5375 1.21277 26 2.00027 26H26.0003C26.7878 26 27.5003 25.5375 27.8253 24.8188C28.1503 24.1 28.019 23.2563 27.494 22.6688L27.0315 22.15C25.0815 19.95 24.0003 17.1187 24.0003 14.175V13C24.0003 8.1625 20.5628 4.125 16.0003 3.2V2C16.0003 0.89375 15.1065 0 14.0003 0ZM16.8315 30.8312C17.5815 30.0812 18.0003 29.0625 18.0003 28H14.0003H10.0003C10.0003 29.0625 10.419 30.0812 11.169 30.8312C11.919 31.5812 12.9378 32 14.0003 32C15.0628 32 16.0815 31.5812 16.8315 30.8312Z" fill="#9CA3AF"/>
</g>
<defs>
<clipPath id="clip0_556_208">
<rect width="28" height="32" fill="white"/>
</clipPath>
</defs>
</svg>
