<svg width="16" height="16" viewBox="0 0 16 16" fill="none" xmlns="http://www.w3.org/2000/svg">
<path d="M10.318 8.59332L11.328 14.2773C11.3393 14.3443 11.3299 14.413 11.3011 14.4745C11.2722 14.5359 11.2253 14.5871 11.1666 14.6212C11.1079 14.6553 11.0402 14.6706 10.9725 14.6651C10.9049 14.6597 10.8405 14.6337 10.788 14.5907L8.40134 12.7993C8.28612 12.7132 8.14616 12.6667 8.00234 12.6667C7.85852 12.6667 7.71855 12.7132 7.60334 12.7993L5.21267 14.59C5.16022 14.6329 5.09591 14.6589 5.02833 14.6644C4.96075 14.6698 4.89312 14.6545 4.83444 14.6206C4.77577 14.5866 4.72885 14.5355 4.69995 14.4742C4.67104 14.4129 4.66153 14.3442 4.67267 14.2773L5.682 8.59332" stroke="#4B5563" stroke-linecap="round" stroke-linejoin="round"/>
<path d="M8 9.33331C10.2091 9.33331 12 7.54245 12 5.33331C12 3.12417 10.2091 1.33331 8 1.33331C5.79086 1.33331 4 3.12417 4 5.33331C4 7.54245 5.79086 9.33331 8 9.33331Z" stroke="#4B5563" stroke-linecap="round" stroke-linejoin="round"/>
</svg>
