<svg width="16" height="17" viewBox="0 0 16 17" fill="none" xmlns="http://www.w3.org/2000/svg">
<path d="M8.00004 14.9993C11.6819 14.9993 14.6667 12.0146 14.6667 8.33268C14.6667 4.65078 11.6819 1.66602 8.00004 1.66602C4.31814 1.66602 1.33337 4.65078 1.33337 8.33268C1.33337 12.0146 4.31814 14.9993 8.00004 14.9993Z" stroke="currentColor" stroke-linecap="round" stroke-linejoin="round"/>
<path d="M8.00004 10.9993C9.4728 10.9993 10.6667 9.80544 10.6667 8.33268C10.6667 6.85992 9.4728 5.66602 8.00004 5.66602C6.52728 5.66602 5.33337 6.85992 5.33337 8.33268C5.33337 9.80544 6.52728 10.9993 8.00004 10.9993Z" stroke="currentColor" stroke-linecap="round" stroke-linejoin="round"/>
<path d="M3.28662 3.62012L6.11329 6.44678" stroke="currentColor" stroke-linecap="round" stroke-linejoin="round"/>
<path d="M9.88672 10.2197L12.7134 13.0464" stroke="currentColor" stroke-linecap="round" stroke-linejoin="round"/>
<path d="M9.88672 6.44678L12.7134 3.62012" stroke="currentColor" stroke-linecap="round" stroke-linejoin="round"/>
<path d="M3.28662 13.0464L6.11329 10.2197" stroke="currentColor" stroke-linecap="round" stroke-linejoin="round"/>
</svg>
