<svg width="16" height="16" viewBox="0 0 16 16" fill="none" xmlns="http://www.w3.org/2000/svg">
<path fill-rule="evenodd" clip-rule="evenodd" d="M2.79169 7.58586C2.68668 7.83932 2.66667 7.96886 2.66667 7.99999V13.3345C2.66667 13.7019 2.96435 14 3.33334 14H5.33334V9.99999C5.33334 9.26359 5.93029 8.66666 6.66667 8.66666H9.33334C10.0697 8.66666 10.6667 9.26359 10.6667 9.99999V14H12.6667C13.0357 14 13.3333 13.7019 13.3333 13.3345V7.99999C13.3333 7.96886 13.3133 7.83932 13.2083 7.58586C13.1108 7.35039 12.9629 7.06172 12.7698 6.73499C12.3843 6.08252 11.8433 5.31998 11.2379 4.59344C10.631 3.86524 9.97594 3.19312 9.3668 2.70968C9.06234 2.46802 8.7824 2.28404 8.537 2.16292C8.286 2.03907 8.1094 1.99999 8 1.99999C7.8906 1.99999 7.714 2.03907 7.463 2.16292C7.2176 2.28404 6.93767 2.46802 6.63319 2.70968C6.02406 3.19312 5.36899 3.86524 4.76215 4.59344C4.1567 5.31998 3.61574 6.08252 3.2302 6.73499C3.03712 7.06172 2.88924 7.35039 2.79169 7.58586ZM6.87294 0.967263C7.22354 0.794243 7.6094 0.666656 8 0.666656C8.3906 0.666656 8.77647 0.794243 9.12707 0.967263C9.4832 1.14302 9.84394 1.38613 10.1957 1.6653C10.8991 2.22353 11.619 2.96807 12.2621 3.73987C12.9067 4.51333 13.4907 5.33412 13.9177 6.05667C14.1309 6.41742 14.3111 6.76412 14.4401 7.07559C14.5617 7.36899 14.6667 7.69779 14.6667 7.99999V13.3345C14.6667 14.4399 13.7705 15.3333 12.6667 15.3333H10.6667C9.93027 15.3333 9.33334 14.7364 9.33334 14V9.99999H6.66667V14C6.66667 14.7364 6.06972 15.3333 5.33334 15.3333H3.33334C2.22956 15.3333 1.33334 14.4399 1.33334 13.3345V7.99999C1.33334 7.69779 1.43832 7.36899 1.55988 7.07559C1.6889 6.76412 1.86913 6.41742 2.0823 6.05667C2.50926 5.33412 3.0933 4.51333 3.73786 3.73987C4.38102 2.96807 5.10094 2.22353 5.80432 1.6653C6.15607 1.38613 6.51681 1.14302 6.87294 0.967263Z" fill="currentColor"/>
</svg>
