<svg width="64" height="64" viewBox="0 0 64 64" fill="none" xmlns="http://www.w3.org/2000/svg">
<path d="M32 45.3333V29.3333" stroke="currentColor" stroke-width="3.75" stroke-linecap="round"/>
<path d="M32 18.6667C33.4728 18.6667 34.6667 19.8606 34.6667 21.3333C34.6667 22.8061 33.4728 24 32 24C30.5273 24 29.3334 22.8061 29.3334 21.3333C29.3334 19.8606 30.5273 18.6667 32 18.6667Z" fill="currentColor"/>
<path d="M18.6667 8.90085C22.589 6.63192 27.143 5.33333 32 5.33333C46.7275 5.33333 58.6667 17.2724 58.6667 32C58.6667 46.7275 46.7275 58.6667 32 58.6667C17.2724 58.6667 5.33337 46.7275 5.33337 32C5.33337 27.1429 6.63196 22.589 8.90089 18.6667" stroke="currentColor" stroke-width="3.75" stroke-linecap="round"/>
</svg>
