<svg width="24" height="24" viewBox="0 0 24 24" fill="none" xmlns="http://www.w3.org/2000/svg">
<g clip-path="url(#clip0_251_410)">
<path d="M9.91932 14.7773C9.93077 14.6834 9.92226 14.5881 9.89433 14.4977C9.86641 14.4073 9.8197 14.3238 9.75727 14.2526C9.69484 14.1815 9.61809 14.1244 9.53205 14.085C9.446 14.0456 9.35261 14.0248 9.25798 14.024H5.16732C5.0567 14.0228 4.94807 13.9944 4.85101 13.9414C4.75394 13.8883 4.67141 13.8122 4.61069 13.7197C4.54997 13.6272 4.51291 13.5213 4.50279 13.4111C4.49267 13.3009 4.50979 13.19 4.55265 13.088L9.76198 0.917333C9.81138 0.794839 9.89604 0.689777 10.0052 0.615475C10.1144 0.541174 10.2432 0.500983 10.3753 0.5H16.3993C16.87 0.5 17.1913 0.98 17.0193 1.42533L14.0526 9.04133C14.0119 9.1431 13.9966 9.25326 14.008 9.36228C14.0194 9.4713 14.0572 9.5759 14.1181 9.66703C14.1791 9.75815 14.2613 9.83306 14.3577 9.88527C14.4541 9.93748 14.5617 9.96542 14.6713 9.96667H18.5006C19.05 9.96667 19.3633 10.6053 19.0313 11.0507L9.07132 24.4453C8.98865 24.556 8.81665 24.4853 8.83132 24.3493L9.91932 14.7773Z" stroke="currentColor" stroke-width="1.5" stroke-linecap="round" stroke-linejoin="round"/>
</g>
<defs>
<clipPath id="clip0_251_410">
<rect width="24" height="24" fill="white"/>
</clipPath>
</defs>
</svg>
