<svg width="281" height="253" viewBox="0 0 281 253" fill="none" xmlns="http://www.w3.org/2000/svg">
<path d="M120.5 27V7.5L70.5001 27V80.5C70.5001 80.5 57.0046 102.892 39 133.5C8.70593 185 4.5 184.5 4.5 212C10.5 250 42.5 248.5 42.5 248.5C42.5 248.5 232 248.5 242.5 248.5C256.5 246.5 290.648 226.5 268.5 180.5C249 140 216.5 80.5 216.5 80.5V7.5L167.5 27M120.5 27L167.5 7.5V27M120.5 27V80.5L53.5 190C53.5 190 48 207.5 63 207.5C120 207.5 219.5 207.5 219.5 207.5C219.5 207.5 232.5 204 227.5 191.5C222.5 179 167.5 80.5 167.5 80.5V27" stroke="#FBB912" stroke-width="9"/>
<path d="M136.366 124.821L124.08 115.324V130.52L108.354 127.67L114.251 140.966L100 144.291L111.794 154.263L100 163.76L114.251 167.084L108.354 180.38L124.08 177.531V193.676L136.366 183.229L142.263 197L149.634 183.229L161.92 193.676V177.531L176.663 180.38L170.766 167.084L186 163.76L173.714 154.263L186 144.291L170.766 140.966L176.663 127.67L161.92 130.52V115.324L149.634 124.821L142.263 112L136.366 124.821Z" stroke="#FBB912" stroke-width="3"/>
<circle cx="143" cy="153" r="14.5" stroke="#FBB912" stroke-width="3"/>
</svg>
