<svg width="331" height="64" viewBox="0 0 331 64" fill="none" xmlns="http://www.w3.org/2000/svg">
<path d="M37.4778 64C29.7537 64 23.1724 63.1087 17.734 61.3261C12.2956 59.5436 8.07882 57.0135 5.08374 53.7359C2.08867 50.4582 0.394089 46.5768 0 42.0916L23.0542 41.3154C23.4483 43.3279 24.2365 45.053 25.4187 46.4906C26.601 47.8706 28.1773 48.9344 30.1478 49.6819C32.197 50.372 34.7192 50.717 37.7143 50.717C40.0788 50.717 42.0887 50.5445 43.7438 50.1995C45.399 49.7969 46.6601 49.1932 47.5271 48.3881C48.3941 47.5831 48.8276 46.5768 48.8276 45.3693C48.8276 44.2767 48.4335 43.3279 47.6453 42.5229C46.936 41.6604 45.4778 40.9128 43.2709 40.2803C41.1429 39.5903 37.9507 38.929 33.6946 38.2965C26.0493 37.1465 19.8621 35.8239 15.133 34.3288C10.4039 32.7763 6.93596 30.7925 4.72906 28.3774C2.60099 25.9623 1.53695 22.8859 1.53695 19.1483C1.53695 15.3531 2.87685 12.018 5.55665 9.14286C8.23645 6.26775 12.0985 4.02516 17.1429 2.41509C22.1872 0.805031 28.2562 0 35.3498 0C42.8374 0 49.1035 0.920036 54.1478 2.76011C59.1921 4.60018 63.0936 7.13028 65.8522 10.3504C68.6897 13.5705 70.3842 17.3082 70.936 21.5633L48.1182 22.2534C47.9606 20.3558 47.3301 18.7457 46.2266 17.4232C45.1232 16.1006 43.6256 15.0943 41.734 14.4043C39.9212 13.6568 37.7143 13.283 35.1133 13.283C31.803 13.283 29.2414 13.7718 27.4286 14.7493C25.6158 15.7269 24.7094 17.0207 24.7094 18.6307C24.7094 19.8958 25.1429 20.9596 26.0099 21.8221C26.9557 22.6846 28.4532 23.4034 30.5025 23.9784C32.6305 24.5535 35.5074 25.071 39.133 25.531C47.4089 26.566 53.9507 27.9748 58.7586 29.7574C63.5665 31.54 66.9557 33.6676 68.9261 36.1402C70.9754 38.6128 72 41.4591 72 44.6792C72 48.6469 70.6207 52.097 67.8621 55.0296C65.1823 57.9048 61.2414 60.1186 56.0394 61.6712C50.9163 63.2237 44.7291 64 37.4778 64Z" fill="currentColor"/>
<path d="M80 62V1H105V62H80Z" fill="currentColor"/>
<path d="M201 62V1H226V62H201Z" fill="currentColor"/>
<path d="M118 62V1H159.192C165.673 1 171.303 1.7446 176.082 3.2338C180.943 4.723 184.669 6.81361 187.261 9.50564C189.934 12.1977 191.271 15.3765 191.271 19.0423C191.271 21.9061 190.501 24.4549 188.962 26.6887C187.423 28.8653 185.195 30.6695 182.279 32.1014C179.363 33.5333 175.839 34.507 171.708 35.0225L171.465 34.1634C177.54 34.1634 182.077 35.0798 185.074 36.9127C188.071 38.6883 189.732 41.323 190.056 44.8169L192 62H167.698L166.483 47.738C166.321 45.5042 165.47 43.8718 163.931 42.8408C162.392 41.7526 159.678 41.2084 155.79 41.2084H141.816V62H118ZM141.816 27.7197H154.818C158.787 27.7197 161.784 27.1469 163.81 26.0014C165.916 24.7986 166.969 23.1376 166.969 21.0183C166.969 18.8418 165.916 17.2094 163.81 16.1211C161.784 15.0329 158.787 14.4887 154.818 14.4887H141.816V27.7197Z" fill="currentColor"/>
<path d="M239 62V1H274L285.748 39L297.5 1H331V62H308.902V27.6338L294.5 61.7423H277.108L261.098 27.6338V62H239Z" fill="currentColor"/>
</svg>
