<svg width="16" height="16" viewBox="0 0 16 16" fill="none" xmlns="http://www.w3.org/2000/svg">
<g clip-path="url(#clip0_3211_3107)">
<path d="M1.33334 13.3333C1.33334 13.6869 1.47381 14.0261 1.72386 14.2761C1.97391 14.5262 2.31305 14.6666 2.66667 14.6666H13.3333C13.687 14.6666 14.0261 14.5262 14.2761 14.2761C14.5262 14.0261 14.6667 13.6869 14.6667 13.3333V5.33331L10 8.66665V5.33331L5.33334 8.66665V2.66665C5.33334 2.31302 5.19286 1.97389 4.94281 1.72384C4.69276 1.47379 4.35362 1.33331 4 1.33331H2.66667C2.31305 1.33331 1.97391 1.47379 1.72386 1.72384C1.47381 1.97389 1.33334 2.31302 1.33334 2.66665V13.3333Z" stroke="currentColor" stroke-linecap="round" stroke-linejoin="round"/>
<path d="M11.3333 12H12" stroke="currentColor" stroke-linecap="round" stroke-linejoin="round"/>
<path d="M8 12H8.66667" stroke="currentColor" stroke-linecap="round" stroke-linejoin="round"/>
<path d="M4.66666 12H5.33333" stroke="currentColor" stroke-linecap="round" stroke-linejoin="round"/>
</g>
<defs>
<clipPath id="clip0_3211_3107">
<rect width="16" height="16" fill="white"/>
</clipPath>
</defs>
</svg>
