<svg width="64" height="64" viewBox="0 0 64 64" fill="none" xmlns="http://www.w3.org/2000/svg">
<path d="M32 37.3333V48" stroke="currentColor" stroke-width="3.75" stroke-linecap="round"/>
<path d="M16 26.6667V21.3333C16 20.4248 16.0757 19.5339 16.2212 18.6667M48 26.6667V21.3333C48 12.4968 40.8365 5.33333 32 5.33333C27.2213 5.33333 22.9318 7.42834 20 10.75" stroke="currentColor" stroke-width="3.75" stroke-linecap="round"/>
<path d="M29.3333 58.6667H21.3333C13.7908 58.6667 10.0195 58.6667 7.6764 56.3235C5.33325 53.9803 5.33325 50.2091 5.33325 42.6667C5.33325 35.1243 5.33325 31.3531 7.6764 29.0099C10.0195 26.6667 13.7908 26.6667 21.3333 26.6667H42.6666C50.209 26.6667 53.9802 26.6667 56.3234 29.0099C58.6666 31.3531 58.6666 35.1243 58.6666 42.6667C58.6666 50.2091 58.6666 53.9803 56.3234 56.3235C53.9802 58.6667 50.209 58.6667 42.6666 58.6667H39.9999" stroke="currentColor" stroke-width="3.75" stroke-linecap="round"/>
</svg>
