<svg width="16" height="17" viewBox="0 0 16 17" fill="none" xmlns="http://www.w3.org/2000/svg">
<path d="M12.6664 7.4291V6.06504C12.6664 5.49621 12.6665 5.10154 12.6414 4.79473C12.623 4.56917 12.5927 4.41756 12.5516 4.30254L12.507 4.19863C12.3839 3.95694 12.1964 3.75453 11.9664 3.61348L11.8649 3.55723C11.7385 3.49286 11.5692 3.4474 11.2688 3.42286C10.962 3.3978 10.5671 3.39707 9.99847 3.39707H5.73203C5.16321 3.39707 4.76854 3.39778 4.46172 3.42286C4.23624 3.44128 4.08454 3.47077 3.96954 3.51191L3.86562 3.55723C3.62382 3.68044 3.42152 3.86774 3.28047 4.09786L3.22422 4.19863C3.15982 4.32504 3.11441 4.49416 3.08985 4.79473C3.06478 5.10154 3.06406 5.49621 3.06406 6.06504V10.3291C3.06406 10.8979 3.06478 11.2926 3.08985 11.5994C3.11441 11.8999 3.15982 12.0691 3.22422 12.1955L3.28047 12.2963C3.42153 12.5264 3.62382 12.7137 3.86562 12.8369L3.96954 12.8815C4.08456 12.9227 4.23609 12.9528 4.46172 12.9713C4.76854 12.9963 5.1632 12.9971 5.73203 12.9971H8.34143C8.78215 12.9971 9.04071 12.9911 9.22191 12.9736C9.12967 12.8186 9.05503 12.6807 8.99919 12.5471L8.95623 12.4346C8.63127 11.4872 8.89527 10.4375 9.62967 9.75642L9.72031 9.67754C9.94207 9.49714 10.2352 9.33538 10.6422 9.10642L12.6047 8.00254L12.6321 8.05176C12.6374 8.02643 12.6452 8.00158 12.6492 7.97598L12.6586 7.89317C12.6659 7.80284 12.6664 7.67839 12.6664 7.4291ZM11.1641 10.0338C10.7742 10.2531 10.578 10.3662 10.4554 10.4541L10.3531 10.5361C9.92735 10.9309 9.77415 11.54 9.96247 12.0892L10.0141 12.2103C10.0466 12.2767 10.0933 12.3561 10.1594 12.4651C10.2726 12.3175 10.4082 12.0892 10.6578 11.6525L11.7813 9.6861L11.1641 10.0338ZM7.86559 7.66348C8.15927 7.66362 8.39759 7.90187 8.39767 8.19551C8.39767 8.48922 8.15935 8.72738 7.86559 8.72754H5.19844C4.90474 8.72738 4.66641 8.48922 4.66641 8.19551C4.66652 7.90187 4.90481 7.66362 5.19844 7.66348H7.86559ZM6.10234 4.99707L6.20938 5.00801C6.45198 5.05748 6.63438 5.2719 6.63438 5.5291C6.63435 5.7863 6.45197 6.00074 6.20938 6.0502L6.10234 6.06114H5.19844C4.90477 6.06099 4.66644 5.8228 4.66641 5.5291C4.66641 5.23538 4.90474 4.99722 5.19844 4.99707H6.10234ZM10.5321 4.99707L10.639 5.00801C10.8816 5.05756 11.0641 5.27196 11.0641 5.5291C11.0641 5.78622 10.8816 6.00066 10.639 6.0502L10.5321 6.06114H8.10231C7.80865 6.06102 7.57035 5.82282 7.57031 5.5291C7.57031 5.23535 7.80862 4.99718 8.10231 4.99707H10.5321ZM13.7305 7.4291C13.7305 7.65439 13.7319 7.82696 13.7188 7.98535L13.7 8.14082C13.6796 8.27067 13.6489 8.39858 13.6086 8.52362L13.5656 8.64786C13.5288 8.74466 13.4842 8.83779 13.4305 8.93923L13.239 9.28066L11.5821 12.1807C11.3042 12.667 11.1065 13.0225 10.8516 13.2939L10.7383 13.4057C10.5072 13.6151 10.2395 13.7796 9.94919 13.8916L9.82343 13.9361C9.42151 14.0672 8.98151 14.0611 8.34143 14.0611H5.73203C5.18076 14.0611 4.73519 14.0616 4.375 14.0323C4.05449 14.006 3.7659 13.9539 3.49688 13.8385L3.38282 13.7854C2.96581 13.5729 2.61673 13.2494 2.37344 12.8525L2.27578 12.6783C2.12233 12.3771 2.05884 12.0523 2.02891 11.6861C1.99948 11.3259 2 10.8803 2 10.3291V6.06504C2 5.51377 1.99948 5.0682 2.02891 4.70801C2.05884 4.34178 2.12234 4.01711 2.27578 3.71582L2.37344 3.54082C2.61671 3.14425 2.96598 2.82118 3.38282 2.60879L3.49688 2.55566C3.76591 2.44027 4.05449 2.38811 4.375 2.36191C4.73519 2.33249 5.18076 2.33301 5.73203 2.33301H9.99847C10.5497 2.33301 10.9953 2.3325 11.3554 2.36191C11.7219 2.39185 12.047 2.45522 12.3485 2.60879L12.5226 2.70645C12.9194 2.94973 13.2423 3.29893 13.4547 3.71582L13.5078 3.82989C13.6233 4.09894 13.6754 4.38746 13.7016 4.70801C13.731 5.0682 13.7305 5.51377 13.7305 6.06504V7.4291Z" fill="currentColor"/>
</svg>
