<svg width="64" height="64" viewBox="0 0 64 64" fill="none" xmlns="http://www.w3.org/2000/svg">
<path d="M16.8247 24C22.9198 13.3333 26.5822 8 32 8C38.1618 8 42.053 14.8991 49.8354 28.6973L50.805 30.4168C57.2722 41.8829 60.5058 47.616 57.5832 51.808C54.6608 56 47.4304 56 32.9698 56H31.0301C16.5695 56 9.33909 56 6.41667 51.808C3.87992 48.1693 5.98147 43.3693 10.8099 34.6667" stroke="currentColor" stroke-width="3.75" stroke-linecap="round"/>
<path d="M32 21.3333V34.6667" stroke="currentColor" stroke-width="3.75" stroke-linecap="round"/>
<path d="M32 45.3333C33.4727 45.3333 34.6666 44.1394 34.6666 42.6667C34.6666 41.1939 33.4727 40 32 40C30.5272 40 29.3333 41.1939 29.3333 42.6667C29.3333 44.1394 30.5272 45.3333 32 45.3333Z" fill="currentColor"/>
</svg>
